<svg width="39" height="24" viewBox="0 0 39 24" fill="none" xmlns="http://www.w3.org/2000/svg">
    <path d="M14.027 23h11.165c9.305 0 13.028-2.2 13.028-7.7V8.7c0-5.5-3.723-7.7-13.028-7.7H14.027C4.722 1 1 3.2 1 8.7v6.6C1 20.8 4.722 23 14.027 23z" stroke="#303030" stroke-width="1.5" stroke-linecap="round" stroke-linejoin="round"/>
    <path d="M7.62 14.227c0-.344-.002-.693-.007-1.045a22.997 22.997 0 0 0-.031-1.049c-.016-.346-.04-.687-.07-1.02a10.488 10.488 0 0 0-.134-.96 7.31 7.31 0 0 0-.207-.868 4.177 4.177 0 0 0-.305-.744l.998-.622c.135.211.249.433.34.665.091.233.167.474.227.724.063.248.113.504.153.767.041.261.08.527.117.799.026.208.047.434.063.676.015.243.027.49.035.74.01.25.017.498.02.744l.003.688v.505H7.621zM21.026 8.013c.03.188.051.36.067.517.016.156.023.3.023.434 0 .248-.036.493-.109.736-.073.24-.183.456-.329.65-.143.19-.323.345-.54.465a1.56 1.56 0 0 1-.755.176c-.068 0-.134-.001-.2-.004a2.127 2.127 0 0 1-.183-.024 23.971 23.971 0 0 1 .11 1.71c.007.29.01.574.01.854.003.279.005.54.005.786h-1.201c0-.438-.006-.88-.016-1.323a20.168 20.168 0 0 0-.063-1.287 12.676 12.676 0 0 0-.14-1.174 5.868 5.868 0 0 0-.251-.994l-.114-.274a3.357 3.357 0 0 0-.176-.387 4.952 4.952 0 0 0-.101-.192l1.01-.642a3.706 3.706 0 0 1 .25.458c.036.073.073.154.11.243l.124.297c.047.11.096.212.145.305.052.094.111.175.176.243a.764.764 0 0 0 .22.16.665.665 0 0 0 .285.051.48.48 0 0 0 .31-.094.498.498 0 0 0 .156-.223.923.923 0 0 0 .055-.3 7.02 7.02 0 0 0 .007-.326c0-.099-.006-.195-.02-.29a6.779 6.779 0 0 0-.046-.34l1.181-.211zM33.377 8.005l.078.43c.02.118.036.222.047.314a3.253 3.253 0 0 1 .035.47c0 .2-.026.4-.078.598a1.652 1.652 0 0 1-.247.536 1.3 1.3 0 0 1-.422.383c-.17.1-.372.15-.607.15a1.387 1.387 0 0 1-.693-.176 1.2 1.2 0 0 1-.23-.177c-.134.144-.28.25-.439.32a1.412 1.412 0 0 1-.563.103h-.145a1.181 1.181 0 0 1-.133-.016c.029.245.052.511.07.798.019.287.032.58.04.877.01.297.017.592.02.884.004.29.007.56.007.81h-1.213a11.068 11.068 0 0 0 .012-.47c.002-.09.004-.178.004-.262a7.2 7.2 0 0 0 .003-.207 23.603 23.603 0 0 0-.05-1.518c-.021-.272-.051-.546-.09-.822a8.511 8.511 0 0 0-.15-.818 6.242 6.242 0 0 0-.226-.779c-.091-.25-.2-.486-.325-.708l1.068-.622a3.06 3.06 0 0 1 .215.391c.04.076.081.163.126.263.044.096.095.21.152.34.058.133.106.243.145.329.042.083.084.15.125.2.042.049.09.084.141.105.053.018.12.027.204.027a.268.268 0 0 0 .176-.055.362.362 0 0 0 .11-.144.745.745 0 0 0 .058-.216c.01-.08.016-.164.016-.25 0-.096-.005-.2-.016-.31l-.039-.406 1.104-.157.027.263c.01.099.023.203.039.313.016.107.035.214.059.32.023.107.052.203.086.286.036.084.08.151.129.204.05.052.108.078.176.078a.147.147 0 0 0 .114-.047.362.362 0 0 0 .066-.121.75.75 0 0 0 .031-.153 1.05 1.05 0 0 0 .008-.266 2.124 2.124 0 0 0-.02-.168l-.042-.27a29.256 29.256 0 0 0-.075-.43l1.111-.224z" fill="#303030"/>
</svg>
